<svg xmlns="http://www.w3.org/2000/svg" version="1.1" xmlns:xlink="http://www.w3.org/1999/xlink" xmlns:svgjs="http://svgjs.dev/svgjs" viewBox="0 0 1422 800"><defs><linearGradient x1="50%" y1="0%" x2="50%" y2="100%" id="ccchaos-grad"><stop stop-color="hsl(206, 75%, 49%)" stop-opacity="1" offset="0%"></stop><stop stop-color="hsl(331, 90%, 56%)" stop-opacity="1" offset="100%"></stop></linearGradient></defs><g stroke-width="1.5" stroke="url(#ccchaos-grad)" fill="none" stroke-linecap="round"><path d="M689.99 42.36C696.02 41.39 701.96 40.37 707.81 39.33 716.55 37.56 733.63 34.33 742.01 33.1 750.38 32.22 767.05 32.15 775.45 33.11 781.15 34.1 786.9 35.47 792.75 37.22 798.72 39.21 804.83 41.57 811.09 44.29 817.52 47.22 824.15 50.48 831 54.02 838.05 57.73 845.34 61.67 852.89 65.82 860.64 70.05 868.64 74.44 876.88 78.94 885.27 83.43 893.87 87.98 902.62 92.58 911.41 97.08 920.27 101.58 929.11 106.05 937.82 110.38 946.37 114.66 954.66 118.87 962.6 122.91 970.09 126.87 977.04 130.75 986.22 136.26 999.49 146.71 1003.24 151.7 1003.74 161.14 995.32 175.19 991 180.03 985.89 190.12 991.05 206.61 998.64 212.65 1005.49 216.77 1013.51 221.05 1022.54 225.48 1032.39 229.96 1042.76 234.59 1053.34 239.37 1063.82 244.2 1073.81 249.17 1082.95 254.26 1090.96 259.41 1097.49 264.67 1102.26 270.05 1105.22 275.47 1106.14 280.99 1104.98 286.6 1102.02 292.24 1097.25 297.96 1090.91 303.76 1083.57 309.58 1075.43 315.45 1066.93 321.39 1058.78 327.33 1051.24 333.32 1044.75 339.35 1039.92 345.38 1036.86 351.44 1035.8 357.52 1037.01 363.6 1040.31 369.71 1045.57 375.82 1052.64 381.93 1060.91 387.98 1069.91 393.97 1079.34 399.96 1088.45 405.88 1096.74 411.74 1103.96 417.61 1109.51 423.42 1113.11 429.17 1114.73 434.94 1114.1 440.66 1111.26 446.35 1106.47 452.05 1099.8 457.74 1091.57 463.4 1082.2 469.1 1072.02 474.81 1061.46 480.52 1050.95 486.29 1040.85 492.09 1031.52 497.92 1023.28 503.84 1016.33 509.82 1010.83 515.87 1006.93 522.02 1004.58 528.26 1003.69 534.6 1004.3 541.06 1006.08 547.63 1008.8 554.32 1012.41 561.14 1016.45 568.08 1020.62 575.15 1024.9 582.33 1028.79 589.63 1032.06 597.03 1034.74 604.52 1036.44 612.09 1037.04 619.72 1036.64 627.38 1035.01 635.05 1032.17 642.7 1028.25 650.3 1023.21 657.82 1017.15 665.2 1010.23 672.43 1002.52 679.46 994.17 686.21 985.32 692.7 976.12 698.84 966.7 704.57 957.17 709.93 947.67 714.8 938.31 719.15 929.15 723.03 920.3 726.33 911.81 729.02 903.71 731.21 896.04 732.78 888.83 733.72 878.9 734.16 861.76 731.73 854.35 729.16 847.72 726.08 835.71 719.27 830.05 716.1 819.06 712.86 801.69 715.75 795.33 719.89 791.02 723.66 786.49 728.05 781.75 733.03 776.99 738.62 772.02 744.62 766.82 750.94 761.61 757.55 756.19 764.22 750.56 770.81 744.91 777.29 739.07 783.39 733.04 788.96 727.01 794 720.79 798.25 714.39 801.6 708 804.09 701.51 805.48 694.95 805.77 688.4 805.11 681.77 803.36 675.08 800.57 668.41 796.95 661.69 792.45 654.92 787.18 648.18 781.36 641.41 775.01 634.62 768.26 627.86 761.34 621.1 754.28 614.35 747.22 607.64 740.36 600.96 733.73 594.32 727.42 587.75 721.62 581.25 716.3 574.83 711.52 568.5 707.41 562.27 703.9 556.18 700.99 547.29 697.97 530.55 695.52 522.78 695.77 515.44 696.96 502.09 700.37 496.08 702.12 485.29 704.43 470.7 703.38 466.11 701.04 461.37 697.64 451.48 687.75 446.21 681.35 442.45 676.6 438.59 671.44 434.64 665.91 430.49 660.11 426.27 654.01 422 647.63 417.59 641.06 413.19 634.27 408.83 627.32 404.44 620.24 400.16 613.04 396.03 605.76 391.99 598.42 388.17 591.03 384.59 583.63 381.18 576.22 378.06 568.82 375.24 561.45 372.62 554.09 370.3 546.79 368.28 539.55 366.41 532.34 364.8 525.2 363.42 518.14 362.11 511.12 360.97 504.17 359.97 497.3 358.93 490.47 357.97 483.71 357.06 477.02 356.03 470.36 355 463.77 353.99 457.23 352.81 450.73 351.64 444.27 350.48 437.86 349.19 431.47 347.94 425.12 346.75 418.81 345.52 412.51 344.4 406.25 343.44 400.02 342.52 393.79 341.81 387.59 341.36 381.42 341.01 375.26 340.96 369.19 341.2 363.23 341.59 357.27 342.27 351.42 343.24 345.66 344.99 337.09 349.69 320.49 352.46 312.47 355.25 304.57 360.86 289.39 363.56 282.11 365.98 274.95 370.54 261.24 372.77 254.69 374.98 248.22 380.14 235.78 383.28 229.76 386.9 223.75 395.94 211.94 401.38 206.08 405.31 202.08 409.52 198.09 413.98 194.1 418.58 189.98 423.37 185.85 428.33 181.69 433.32 177.38 438.4 173.03 443.54 168.62 448.61 164.07 453.68 159.45 458.71 154.78 463.59 149.96 468.39 145.08 473.11 140.16 477.63 135.11 482.05 130.03 486.38 124.94 490.5 119.76 494.54 114.6 498.52 109.47 502.32 104.32 506.08 99.25 509.84 94.28 515.29 86.98 526.33 73.44 532.01 67.35 537.79 61.81 550.08 52.65 556.64 49.1 563.43 46.24 577.91 42.59 585.57 41.71 593.47 41.32 609.95 41.77 618.48 42.42 624.24 42.82 630.07 43.29 635.96 43.77 641.87 44.09 647.84 44.37 653.83 44.59 659.83 44.56 665.86 44.44 671.89 44.21 677.93 43.7 683.96 43.08 689.98 42.36" stroke-dasharray="0 4" transform="rotate(0, 711, 400)" opacity="0.73"></path><path d="M688.5 53.21C694.33 52.24 700.13 51.22 705.9 50.17 711.67 48.97 717.41 47.81 723.13 46.72 731.73 45.09 748.97 42.82 757.68 42.37 763.55 42.32 769.48 42.6 775.49 43.22 781.59 44.05 787.8 45.26 794.13 46.83 807.15 50.68 820.85 55.95 835.32 62.48 850.36 69.69 866.18 77.8 882.64 86.58 899.25 95.43 915.95 104.52 932.23 113.67 947.47 122.36 961.18 130.85 972.61 139.09 981.57 146.64 987.39 153.92 989.76 161 989.61 167.47 986.74 173.9 981.98 180.38 977.44 186.51 973.65 192.9 972.14 199.63 974.81 206.27 981.89 213.4 993.76 221.06 1010.07 228.78 1029.36 237.09 1049.61 245.95 1068.55 254.95 1083.59 264.49 1092.51 274.51 1094.42 279.56 1094.42 284.72 1092.52 289.98 1089.01 295.27 1083.91 300.65 1077.45 306.12 1070.21 311.6 1062.33 317.16 1054.25 322.79 1046.6 328.43 1039.61 334.13 1033.67 339.88 1029.32 345.64 1026.66 351.45 1025.87 357.31 1027.18 363.16 1030.44 369.06 1035.51 374.99 1042.26 380.92 1050.14 386.81 1058.72 392.67 1067.73 398.53 1076.5 404.36 1084.56 410.15 1091.69 415.95 1097.34 421.72 1101.21 427.47 1103.29 433.23 1103.29 438.97 1101.21 444.71 1097.28 450.47 1091.51 456.23 1084.17 462 1075.64 467.81 1066.17 473.64 1056.15 479.51 1036.04 491.41 1017.92 503.53 1003.92 515.94 995.57 528.69 992.77 541.84 994.71 555.39 1000.7 569.3 1008.2 583.6 1015.26 598.19 1021.08 612.93 1023.45 627.71 1021.68 642.28 1016.11 656.44 1006.34 669.9 993.16 682.27 977.47 693.48 960.1 703.03 942.07 710.58 924 716.42 906.7 719.99 890.59 721.25 875.81 721.01 862.52 718.89 850.6 715.3 839.99 711.51 830.33 707.41 821.27 703.7 812.96 701.71 804.72 701.36 796.3 703.16 790.08 706.46 777.04 717.21 770.16 724.49 765.52 730.05 760.7 735.97 755.7 742.14 750.7 748.56 745.51 755 740.13 761.33 734.75 767.53 729.19 773.36 723.45 778.68 717.71 783.49 711.79 787.55 705.71 790.75 699.62 793.16 693.45 794.54 687.21 794.87 680.97 794.33 674.67 792.75 668.31 790.2 661.98 786.86 655.6 782.67 649.19 777.74 642.81 772.27 636.41 766.27 630.02 759.85 623.66 753.23 617.32 746.43 611.01 739.58 604.76 732.86 598.55 726.31 592.42 720.02 580.38 708.77 568.74 699.38 557.65 692.1 547.01 687.45 537.07 684.84 527.93 683.9 519.26 684.81 511.39 686.44 504.3 688.2 497.42 690.28 491.07 691.49 485.09 691.43 478.78 690.48 472.44 687.75 465.92 683.18 458.59 677.31 450.87 669.65 442.78 660.4 433.99 650.07 425.11 638.5 416.38 626.01 407.71 612.9 399.74 599.24 392.77 585.27 386.53 571.11 381.51 556.89 377.73 542.77 374.53 528.68 372.19 514.79 370.47 501.15 369.55 494.37 368.68 487.65 367.85 481 366.87 474.38 365.88 467.82 364.87 461.32 363.7 454.85 362.5 448.43 361.29 442.07 359.94 435.72 358.62 429.43 357.35 423.19 356.02 416.97 354.81 410.78 353.76 404.65 352.74 398.52 351.95 392.44 351.42 386.4 350.96 377.41 351.85 359.99 353.17 351.57 354.99 343.26 359.87 327.22 362.74 319.5 365.65 311.88 371.44 297.23 374.19 290.2 377.29 280.87 380.26 271.99 383.21 263.53 385.8 254.95 388.85 246.72 392.63 238.79 396.89 230.6 402.32 222.57 408.98 214.63 416.47 206.26 425.08 197.84 434.59 189.3 444.44 180.2 454.69 170.91 465.07 161.42 475.05 151.42 484.77 141.29 494.15 131.14 502.76 120.78 511.03 110.65 519.05 100.95 526.46 91.54 533.88 82.91 541.45 75.29 548.77 68.42 556.49 62.8 564.69 58.55 572.93 55.18 581.75 53.11 591.12 52.28 598.3 52.05 613.35 52.71 621.19 53.4 629.17 54.05 645.61 55.19 654.03 55.52 662.52 55.4 679.76 54.25 688.49 53.21" stroke-dasharray="2 1" transform="rotate(2, 711, 400)" opacity="0.48"></path><path d="M690.37 64.05C698.9 62.57 716.08 59.23 724.74 57.55 736.36 55.23 748.18 53.6 760.27 52.9 772.57 52.77 785.32 53.95 798.59 56.51 812.22 59.98 826.48 64.85 841.37 70.98 856.55 77.82 872.19 85.61 888.04 94.13 903.62 102.82 918.78 111.84 932.96 121.01 945.77 129.83 956.66 138.52 965.06 147.02 971.13 154.88 974.26 162.5 974.44 169.89 972.87 176.68 969.44 183.36 965.1 190.02 961.86 196.27 960.15 202.68 961.24 209.34 966.57 215.82 976.11 222.69 989.82 230.01 1007.08 237.31 1026.3 245.13 1045.51 253.46 1062.66 261.87 1075.5 270.79 1082.2 280.19 1082.49 289.68 1076.01 299.6 1063.97 309.93 1049.52 320.29 1034.72 331.01 1022.67 342.02 1017.64 350.32 1018.97 367.25 1025.45 375.86 1031.89 381.63 1039.39 387.38 1047.55 393.13 1056.15 398.88 1064.57 404.61 1072.38 410.35 1085.3 421.83 1091.86 433.33 1090.9 444.85 1082.99 456.48 1068.83 468.23 1050.66 480.14 1031.24 492.26 1012.9 504.63 997.77 517.3 987.46 530.24 982.27 543.54 981.77 557.15 985.6 571.01 991.68 585.11 998.26 599.33 1004.63 613.51 1008.55 627.54 1009.12 641.14 1006.5 654.18 999.91 666.33 989.78 677.25 976.91 686.97 961.76 695 945.26 701.06 928.03 705.55 910.84 707.96 894.26 708.3 878.45 707.45 863.79 705.05 850.34 701.5 838.01 698.04 826.7 694.54 816.18 691.62 806.45 690.49 797.1 691.01 787.86 693.59 778.99 698.91 769.91 706.46 760.47 715.99 751.12 727.41 741.26 739.65 730.84 751.83 725.63 757.75 720.27 763.31 714.76 768.38 709.25 772.96 703.6 776.84 697.81 779.91 692.02 782.23 686.16 783.59 680.25 783.97 674.35 783.53 668.4 782.12 662.42 779.79 650.51 772.96 638.54 763.21 626.63 751.37 614.9 738.62 603.35 725.45 592.13 712.69 581.21 701.32 570.75 691.51 560.9 683.59 551.44 678.07 542.65 674.48 534.62 672.56 526.91 672.51 519.86 673.34 513.42 674.54 506.97 676.31 500.84 677.52 494.88 677.77 488.41 677.44 481.77 675.6 474.82 672.14 467.05 667.57 458.89 661.31 450.4 653.51 441.37 644.68 432.36 634.55 423.66 623.39 415.19 611.56 407.54 599.03 400.98 586.03 395.21 572.74 390.68 559.24 387.35 545.69 384.56 532.1 382.56 518.59 381.09 505.26 379.33 491.98 377.6 478.9 375.76 466.07 373.18 453.3 370.5 440.76 367.9 428.46 366.49 422.32 365.19 416.24 364.05 410.21 362.95 404.19 362.08 398.23 361.48 392.31 360.94 383.51 361.75 366.51 363.09 358.31 365.51 347.44 368.9 337.04 372.94 327.12 376.84 317.16 380.86 307.65 384.79 298.58 387.96 289.44 390.92 280.69 393.78 272.3 396.17 263.75 398.91 255.48 402.24 247.42 405.96 239.06 410.78 230.8 416.78 222.57 423.62 213.9 431.65 205.14 440.69 196.25 450.24 186.84 460.37 177.26 470.8 167.53 481.04 157.38 491.16 147.19 501.03 137.07 510.23 126.84 519.09 116.95 527.63 107.59 535.51 98.59 543.25 90.45 550.99 83.35 558.34 77.01 565.91 71.92 573.81 68.15 581.6 65.21 589.86 63.5 598.61 62.94 607.39 62.76 616.69 63.33 626.48 64.41 636.31 65.14 646.59 65.88 657.26 66.45 665.32 66.3 681.87 65.11 690.36 64.05" stroke-dasharray="1 2" transform="rotate(4, 711, 400)" opacity="0.91"></path><path d="M695.31 74.9C706.47 72.76 717.88 70.52 729.53 68.4 741.25 66.04 753.32 64.33 765.75 63.48 778.37 63.14 791.46 64.05 805.05 66.27 818.85 69.37 833.15 73.82 847.83 79.53 862.53 85.96 877.33 93.4 891.91 101.61 905.87 110.08 918.97 118.97 930.69 128.1 940.87 136.97 948.95 145.81 954.55 154.51 958.14 162.66 959.19 170.59 957.92 178.3 955.7 185.42 952.48 192.4 949.23 199.31 947.77 205.76 948.4 212.3 952.13 218.99 959.93 225.44 971.55 232.19 986.64 239.29 1004.34 246.31 1023.06 253.78 1040.91 261.71 1056.12 269.65 1066.74 278.07 1071.36 286.96 1070.04 295.89 1062.65 305.28 1050.49 315.08 1036.57 324.91 1022.74 335.12 1011.75 345.69 1006.51 356.27 1007.67 367.17 1015.39 378.4 1028.84 389.62 1044.81 400.9 1060.23 412.23 1073.02 423.6 1080.12 435.06 1080.32 446.62 1074.04 458.29 1061.61 470.13 1044.94 482.17 1026.43 494.39 1008.19 506.87 992.27 519.62 980.34 532.58 972.97 545.81 970.08 559.27 971.61 572.83 975.9 586.49 981.48 600.1 987.73 613.53 992.52 626.61 994.82 639.08 994.64 650.87 990.93 661.65 983.8 671.09 973.92 679.35 961.4 685.93 947.01 690.62 931.36 693.93 915.09 695.36 898.82 694.99 882.76 693.71 867.41 691.19 852.96 687.84 839.34 684.82 826.67 681.99 814.84 679.88 803.75 679.6 793.22 680.95 783.04 684.26 773.27 690.09 763.56 697.94 753.76 707.52 744.1 718.75 734.16 730.62 723.88 742.3 713.62 753.36 702.95 762.56 691.88 769.06 680.81 772.8 669.63 772.86 658.43 769.35 647.29 763.07 636.2 753.98 625.28 742.82 614.51 730.68 604.03 717.95 593.95 705.42 584.12 694.01 574.81 683.9 566.1 675.43 557.67 669.14 549.87 664.64 542.71 661.75 535.7 660.73 529.2 660.71 523.12 661.24 516.83 662.55 510.67 663.57 504.49 663.93 497.68 663.98 490.59 662.79 483.12 660.22 474.88 656.75 466.3 651.75 457.49 645.28 448.3 637.86 439.3 629.15 430.75 619.34 422.58 608.84 415.35 597.53 409.28 585.62 404.04 573.34 400.02 560.72 397.16 547.92 394.77 534.99 393.07 522.04 391.82 509.17 390.19 496.29 388.5 483.56 386.62 471.03 383.97 458.53 381.16 446.24 378.41 434.18 375.41 422.15 373.01 410.33 371.54 398.75 370.69 387.17 371.18 376.09 372.97 365.49 375.44 354.86 378.9 344.7 383.05 334.99 387.1 325.22 391.26 315.87 395.32 306.92 398.6 297.86 401.62 289.15 404.44 280.73 406.7 272.11 409.18 263.7 412.13 255.44 415.34 246.87 419.54 238.33 424.85 229.78 430.99 220.8 438.34 211.72 446.77 202.51 455.86 192.85 465.68 183.05 475.98 173.15 486.3 162.95 496.68 152.78 506.93 142.77 516.67 132.78 526.11 123.21 535.24 114.25 543.72 105.73 551.98 98.11 560.1 91.55 567.75 85.76 575.47 81.19 583.38 77.91 591.04 75.37 599.05 74 607.47 73.68 615.81 73.68 624.63 74.34 633.93 75.44 643.21 76.17 652.98 76.87 663.22 77.38 673.44 76.96 684.14 76.13 695.3 74.9" stroke-dasharray="1 3" transform="rotate(6, 711, 400)" opacity="0.68"></path><path d="M702.6 85.75C713.61 83.62 724.95 81.39 736.63 79.26 748.36 76.89 760.5 75.1 773.02 74.12 785.67 73.59 798.74 74.23 812.19 76.12 825.7 78.84 839.49 82.88 853.38 88.15 867.04 94.16 880.44 101.19 893.23 109.05 905.18 117.25 915.94 125.94 925.08 134.95 932.7 143.82 938.23 152.74 941.48 161.58 943.17 169.97 942.85 178.18 940.92 186.19 938.79 193.64 936.44 200.94 934.81 208.13 935.46 214.85 938.54 221.59 944.79 228.41 954.76 234.93 968.02 241.68 983.98 248.69 1001.65 255.57 1019.48 262.81 1035.71 270.46 1048.87 278.06 1057.33 286.11 1060 294.6 1057.27 303.09 1049.17 312.03 1037.03 321.39 1023.73 330.76 1010.87 340.55 1000.9 350.73 996.41 360.91 997.86 371.47 1005.33 382.41 1018.12 393.35 1033.28 404.42 1048.09 415.61 1060.7 426.83 1068.24 438.21 1069.5 449.76 1064.74 461.38 1054.03 473.22 1038.92 485.27 1021.52 497.44 1003.67 509.87 987.31 522.53 974.11 535.3 964.83 548.26 959.7 561.34 958.87 574.4 961.12 587.41 965.27 600.21 970.82 612.7 975.81 624.68 979.17 635.91 980.84 646.4 979.54 655.77 975.16 663.77 968.22 670.63 958.52 675.87 946.61 679.36 933.1 681.66 918.42 682.29 903.18 681.4 887.65 679.88 872.34 677.41 857.55 674.38 843.23 671.89 829.67 669.77 816.87 668.5 804.66 669.03 793.09 671.17 782.01 675.13 771.34 681.42 760.92 689.5 750.65 699.08 740.54 710.09 730.39 721.55 720.12 732.74 709.88 743.28 699.45 752.02 688.81 758.21 678.17 761.84 667.58 762.04 657.12 758.88 646.69 753.13 636.45 744.68 626.48 734.19 616.63 722.67 607.14 710.43 598.11 698.19 589.25 686.83 580.91 676.52 573.15 667.6 565.53 660.63 558.45 655.3 551.89 651.51 545.3 649.53 539.04 648.62 533.02 648.4 526.62 649.11 520.2 649.78 513.61 650.05 506.33 650.26 498.71 649.51 490.71 647.6 482.03 645.02 473.1 641.08 464.07 635.79 454.86 629.67 445.98 622.28 437.71 613.79 429.96 604.62 423.25 594.56 417.74 583.81 413.06 572.64 409.57 561.01 407.17 549.09 405.15 536.97 403.73 524.72 402.65 512.44 401.1 500.12 399.41 487.86 397.46 475.73 394.71 463.61 391.78 451.65 388.87 439.89 385.73 428.15 383.2 416.6 381.6 405.27 380.66 393.95 381.09 383.09 382.85 372.7 385.33 362.28 388.84 352.29 393.07 342.71 397.25 333.08 401.56 323.81 405.76 314.89 409.2 305.84 412.32 297.07 415.17 288.54 417.37 279.79 419.67 271.19 422.3 262.68 425.04 253.86 428.65 245.04 433.29 236.17 438.67 226.91 445.26 217.55 452.98 208.07 461.44 198.22 470.78 188.29 480.76 178.32 490.96 168.16 501.39 158.11 511.87 148.32 522.02 138.64 531.96 129.47 541.65 120.98 550.76 112.98 559.62 105.92 568.28 99.93 576.42 94.69 584.53 90.64 592.69 87.81 600.53 85.68 608.58 84.61 616.95 84.52 625.14 84.66 633.74 85.39 642.79 86.51 651.76 87.21 661.22 87.86 671.19 88.31 681.12 87.85 691.58 86.99 702.59 85.75" stroke-dasharray="3 3" transform="rotate(8, 711, 400)" opacity="0.61"></path><path d="M711.14 96.59C722.02 94.48 733.25 92.27 744.82 90.15 756.43 87.76 768.41 85.91 780.72 84.81 793.08 84.1 805.74 84.49 818.6 86.06 831.39 88.41 844.2 92.03 856.8 96.86 869 102.42 880.62 109.02 891.34 116.49 901.11 124.35 909.5 132.79 916.19 141.61 921.53 150.4 924.97 159.32 926.46 168.24 926.93 176.8 925.99 185.23 924.14 193.5 922.76 201.28 921.84 208.89 922.2 216.38 925.1 223.41 930.59 230.4 939.1 237.42 950.85 244.1 965.27 250.94 981.61 257.97 998.8 264.82 1015.41 271.96 1029.83 279.45 1040.9 286.84 1047.26 294.63 1048.16 302.83 1044.22 310.99 1035.59 319.58 1023.62 328.59 1010.99 337.59 999.11 347.02 990.14 356.86 986.34 366.7 988.04 376.95 995.27 387.62 1007.41 398.29 1021.79 409.15 1035.97 420.17 1048.35 431.22 1056.23 442.46 1058.43 453.89 1055.09 465.39 1046.06 477.11 1032.56 489.02 1016.43 501.03 999.23 513.24 982.77 525.6 968.66 538.01 957.8 550.51 950.62 562.99 947.5 575.37 947.59 587.55 949.98 599.38 954.34 610.8 958.92 621.59 962.67 631.52 965.53 640.67 966.08 648.66 964.02 655.29 959.77 660.86 952.82 664.91 943.55 667.37 932.52 668.84 919.92 668.88 906.3 667.65 891.99 666.06 877.42 663.78 862.95 661.18 848.6 659.3 834.72 657.92 821.43 657.47 808.53 658.8 796.22 661.66 784.45 666.21 773.03 672.88 761.99 681.12 751.25 690.66 740.68 701.41 730.26 712.47 719.93 723.15 709.64 733.18 699.35 741.47 689.05 747.37 678.74 750.88 668.66 751.2 658.84 748.38 649.04 743.13 639.54 735.31 630.4 725.48 621.33 714.59 612.68 702.88 604.5 690.99 596.41 679.75 588.82 669.33 581.72 660.08 574.64 652.53 567.99 646.46 561.7 641.82 555.22 638.92 548.93 637.12 542.7 636.1 535.98 636.12 529.11 636.3 521.98 636.3 514.16 636.47 506 635.93 497.51 634.47 488.47 632.56 479.31 629.46 470.21 625.17 461.11 620.18 452.5 614 444.65 606.74 437.43 598.84 431.31 590.02 426.41 580.45 422.32 570.44 419.37 559.87 417.4 548.9 415.72 537.7 414.52 526.26 413.55 514.69 412.03 503.04 410.3 491.35 408.27 479.72 405.41 468.08 402.34 456.53 399.29 445.13 396.03 433.74 393.37 422.49 391.66 411.43 390.64 400.37 390.99 389.74 392.7 379.52 395.18 369.28 398.71 359.42 403 349.93 407.29 340.37 411.74 331.13 416.1 322.17 419.72 313.08 422.99 304.21 425.93 295.51 428.14 286.6 430.33 277.78 432.72 269.01 435.08 259.95 438.15 250.86 442.13 241.7 446.76 232.21 452.55 222.63 459.47 212.97 467.18 203.02 475.86 193.05 485.32 183.12 495.18 173.09 505.46 163.27 515.95 153.78 526.31 144.5 536.6 135.8 546.73 127.83 556.41 120.39 565.86 113.91 575.1 108.5 583.85 103.82 592.48 100.27 601.07 97.88 609.3 96.11 617.63 95.33 626.16 95.43 634.48 95.7 643.11 96.49 652.11 97.59 661 98.26 670.34 98.86 680.17 99.24 689.94 98.74 700.26 97.85 711.13 96.59" stroke-dasharray="3 2" transform="rotate(10, 711, 400)" opacity="0.18"></path><path d="M719.66 107.44C730.39 105.35 741.42 103.16 752.72 101.05 764.05 98.66 775.64 96.76 787.45 95.55 799.23 94.68 811.13 94.83 823.02 96.1 834.72 98.09 846.19 101.29 857.19 105.66 867.67 110.77 877.34 116.91 885.92 123.95 893.57 131.43 899.79 139.54 904.39 148.11 907.93 156.74 909.85 165.58 910.29 174.51 910.25 183.17 909.41 191.76 908.3 200.23 908.21 208.28 909.08 216.19 911.63 223.96 916.78 231.31 924.47 238.58 934.88 245.84 947.96 252.76 963.03 259.76 979.26 266.9 995.59 273.81 1010.7 280.96 1023.19 288.38 1032.18 295.68 1036.57 303.32 1035.88 311.32 1030.94 319.26 1021.96 327.6 1010.26 336.35 998.37 345.06 987.47 354.2 979.45 363.76 976.31 373.3 978.23 383.27 985.21 393.68 996.72 404.1 1010.33 414.72 1023.88 425.53 1035.97 436.36 1044.11 447.4 1047.14 458.63 1045.11 469.9 1037.68 481.38 1025.82 493.02 1011.08 504.7 994.75 516.53 978.51 528.43 963.86 540.3 951.76 552.17 942.82 563.9 937.56 575.43 935.47 586.65 935.9 597.39 938.68 607.67 942.33 617.21 945.87 625.82 950.11 637.01 946.49 651.66 937.56 654.77 929.12 655.61 918.87 655.25 907.28 653.87 894.73 652.36 881.5 650.39 867.97 648.32 854.24 647.09 840.65 646.47 827.4 646.82 814.32 648.9 801.7 652.41 789.57 657.48 777.68 664.46 766.22 672.81 755.14 682.26 744.22 692.71 733.58 703.35 723.17 713.54 712.81 723.05 702.61 730.92 692.57 736.52 682.52 739.93 672.83 740.35 663.53 737.85 654.22 733.07 645.3 725.85 636.81 716.69 628.33 706.43 620.3 695.27 612.73 683.79 605.15 672.75 598.01 662.31 591.28 652.83 584.44 644.81 577.9 638.1 571.59 632.7 564.96 628.93 558.37 626.25 551.72 624.41 544.53 623.67 537.1 623.25 529.38 622.85 521.03 622.8 512.38 622.27 503.5 621.04 494.25 619.57 485.01 617.11 476 613.61 467.17 609.57 458.99 604.43 451.67 598.27 445.07 591.55 439.61 583.9 435.35 575.47 431.86 566.61 429.41 557.13 427.84 547.16 426.44 536.93 425.41 526.37 424.51 515.59 422.99 504.69 421.18 493.67 419.03 482.62 416.04 471.53 412.85 460.47 409.67 449.48 406.29 438.49 403.53 427.59 401.72 416.81 400.62 406.03 400.89 395.62 402.54 385.57 404.99 375.49 408.52 365.74 412.84 356.3 417.22 346.78 421.8 337.53 426.32 328.5 430.13 319.34 433.59 310.33 436.67 301.46 438.97 292.38 441.13 283.35 443.36 274.33 445.42 265.06 448.04 255.74 451.42 246.36 455.32 236.72 460.3 227 466.38 217.25 473.23 207.31 481.13 197.4 489.9 187.61 499.21 177.82 509.09 168.32 519.36 159.23 529.69 150.42 540.12 142.24 550.5 134.84 560.61 128.01 570.54 122.12 580.29 117.29 589.64 113.15 598.83 110.09 607.93 108.12 616.67 106.69 625.43 106.16 634.28 106.43 642.9 106.8 651.74 107.61 660.85 108.7 669.84 109.32 679.2 109.85 688.99 110.17 698.72 109.62 708.93 108.71 719.66 107.44" stroke-dasharray="3 3" transform="rotate(12, 711, 400)" opacity="0.13"></path><path d="M726.89 118.28C737.42 116.22 748.14 114.06 759.02 111.97 769.9 109.58 780.9 107.65 791.93 106.35 802.9 105.33 813.78 105.27 824.43 106.24 834.82 107.88 844.75 110.67 854.02 114.6 862.73 119.23 870.49 124.9 877.08 131.46 882.87 138.52 887.31 146.25 890.34 154.51 892.64 162.91 893.73 171.59 893.82 180.43 893.94 189.11 893.82 197.78 894 206.4 895.55 214.66 898.44 222.81 903.19 230.84 910.43 238.48 920.01 246.04 931.89 253.56 945.8 260.74 961.05 267.95 976.72 275.25 991.86 282.31 1005.26 289.54 1015.74 296.99 1022.71 304.29 1025.28 311.87 1023.2 319.77 1017.45 327.58 1008.29 335.75 996.99 344.3 985.87 352.8 975.94 361.7 968.83 371.02 966.3 380.31 968.42 390.03 975.15 400.18 986.04 410.33 998.9 420.69 1011.81 431.24 1023.58 441.8 1031.89 452.57 1035.63 463.5 1034.8 474.45 1028.9 485.57 1018.66 496.8 1005.4 508.03 990.15 519.32 974.4 530.61 959.56 541.81 946.59 552.89 936.21 563.73 929.04 574.31 924.84 584.48 923.24 594.07 924.2 603.16 926.48 611.47 929.27 618.8 933.96 633.92 918.75 641.8 905.47 640.15 895.01 638.85 883.55 637.3 871.46 635.82 858.91 635.28 846.17 635.42 833.48 636.55 820.77 639.31 808.31 643.42 796.21 648.94 784.24 656.15 772.65 664.56 761.44 673.86 750.36 684 739.61 694.2 729.18 703.9 718.81 712.92 708.69 720.36 698.84 725.67 688.98 728.97 679.59 729.49 670.65 727.28 661.7 722.96 653.18 716.33 645.12 707.81 637.03 698.2 629.36 687.6 622.12 676.57 614.79 665.81 607.81 655.44 601.15 645.82 594.27 637.44 587.58 630.2 580.98 624.13 573.99 619.55 566.94 616.03 559.74 613.37 551.99 611.84 543.98 610.74 535.7 609.83 526.89 609.4 517.88 608.7 508.76 607.51 499.45 606.26 490.32 604.22 481.58 601.31 473.18 598 465.55 593.73 458.88 588.51 452.98 582.83 448.21 576.25 444.6 568.88 441.69 561.13 439.71 552.7 438.49 543.72 437.32 534.49 436.4 524.84 435.51 514.89 433.93 504.8 432.02 494.51 429.73 484.09 426.62 473.62 423.3 463.1 419.99 452.56 416.53 442.02 413.68 431.5 411.78 421.03 410.6 410.57 410.8 400.39 412.37 390.5 414.76 380.59 418.26 370.94 422.59 361.53 427.03 352.05 431.73 342.77 436.4 333.66 440.42 324.43 444.08 315.31 447.35 306.26 449.8 297.04 452.02 287.83 454.18 278.62 456.04 269.19 458.3 259.72 461.16 250.2 464.41 240.49 468.61 230.74 473.83 221.01 479.78 211.18 486.79 201.45 494.73 191.91 503.3 182.46 512.57 173.36 522.38 164.74 532.43 156.47 542.73 148.87 553.14 142.08 563.44 135.85 573.67 130.57 583.78 126.31 593.61 122.7 603.3 120.1 612.86 118.51 622.13 117.39 631.35 117.09 640.59 117.5 649.6 117.95 658.74 118.77 668.05 119.82 677.24 120.38 686.71 120.85 696.49 121.09 706.23 120.5 716.35 119.56 726.89 118.28" stroke-dasharray="4 4" transform="rotate(14, 711, 400)" opacity="0.18"></path><path d="M731.74 129.13C742.01 127.1 752.32 124.97 762.63 122.9 772.93 120.54 783.17 118.58 793.27 117.2 803.25 116.05 812.96 115.79 822.25 116.49 831.26 117.79 839.64 120.19 847.22 123.66 854.3 127.82 860.38 132.99 865.33 139.07 869.68 145.66 872.86 152.97 874.91 160.85 876.62 168.94 877.54 177.39 877.93 186.06 878.8 194.66 879.89 203.34 881.7 212.01 885.11 220.41 890.04 228.74 896.85 236.98 905.9 244.88 916.96 252.7 929.82 260.46 944.08 267.9 959.02 275.35 973.75 282.84 987.43 290.09 998.99 297.46 1007.45 304.99 1012.5 312.36 1013.43 319.95 1010.17 327.81 1003.81 335.57 994.62 343.65 983.81 352.05 973.5 360.4 964.53 369.12 958.29 378.22 956.32 387.3 958.61 396.78 965.09 406.66 975.38 416.54 987.51 426.62 999.78 436.85 1011.18 447.1 1019.57 457.51 1023.92 468.05 1024.17 478.59 1019.71 489.24 1011.06 499.93 999.33 510.59 985.31 521.24 970.31 531.79 955.61 542.2 942.13 552.4 930.66 562.26 921.88 571.83 915.77 580.9 912.17 589.32 911.16 597.25 911.8 604.35 913.41 610.5 918.56 622.63 910.44 628.12 900.5 626.6 892.24 625.62 882.79 624.58 872.45 623.75 861.49 623.9 850.06 624.79 838.39 626.64 826.53 630.04 814.69 634.67 803.03 640.56 791.38 647.95 779.99 656.34 768.93 665.46 757.93 675.27 747.25 685.02 736.91 694.23 726.61 702.76 716.61 709.79 706.92 714.83 697.23 718 688.04 718.61 679.34 716.68 670.6 712.8 662.32 706.73 654.46 698.85 646.54 689.87 639.01 679.87 631.83 669.32 624.5 658.89 617.43 648.68 610.58 639.02 603.45 630.4 596.39 622.72 589.33 616.08 581.86 610.79 574.25 606.48 566.45 603.03 558.16 600.69 549.64 598.88 540.89 597.36 531.78 596.44 522.58 595.42 513.41 594.1 504.24 592.86 495.4 591.04 487.11 588.51 479.29 585.73 472.33 582.13 466.39 577.68 461.23 572.87 457.16 567.22 454.2 560.8 451.82 554.05 450.26 546.61 449.33 538.59 448.33 530.32 447.46 521.58 446.53 512.46 444.86 503.2 442.82 493.66 440.37 483.91 437.13 474.1 433.69 464.15 430.28 454.11 426.74 444.06 423.82 433.95 421.84 423.82 420.59 413.68 420.71 403.76 422.19 394.04 424.51 384.32 427.96 374.77 432.26 365.41 436.74 355.99 441.52 346.7 446.33 337.53 450.55 328.25 454.44 319.03 457.93 309.86 460.59 300.54 462.94 291.21 465.13 281.88 466.89 272.38 468.9 262.84 471.35 253.3 474.02 243.61 477.51 233.95 481.91 224.36 486.96 214.74 493.02 205.29 500.04 196.11 507.72 187.08 516.2 178.48 525.33 170.41 534.84 162.72 544.76 155.74 554.92 149.57 565.15 143.97 575.43 139.29 585.69 135.58 595.8 132.47 605.81 130.31 615.72 129.07 625.41 128.23 635.03 128.12 644.61 128.64 654 129.14 663.44 129.96 672.96 130.95 682.37 131.45 691.95 131.84 701.73 132.01 711.47 131.38 721.47 130.41 731.74 129.13" stroke-dasharray="1 3" transform="rotate(16, 711, 400)" opacity="0.73"></path><path d="M733.49 139.98C743.42 137.98 753.24 135.89 762.88 133.85 772.5 131.51 781.9 129.55 790.98 128.1 799.94 126.84 808.45 126.39 816.41 126.84 824.1 127.82 831.07 129.84 837.2 132.88 842.93 136.56 847.71 141.24 851.49 146.81 854.91 152.9 857.42 159.73 859.13 167.18 860.85 174.9 862.18 183.03 863.44 191.46 865.48 199.9 868.11 208.48 871.74 217.12 877.03 225.57 883.87 234 892.45 242.37 902.93 250.47 915 258.5 928.34 266.47 942.47 274.16 956.69 281.83 970.15 289.52 982.17 296.97 991.82 304.51 998.32 312.15 1001.58 319.63 1001.06 327.28 996.84 335.15 990.06 342.91 980.99 350.93 970.75 359.24 961.27 367.49 953.23 376.06 947.82 384.96 946.37 393.84 948.81 403.08 955.03 412.68 964.74 422.29 976.15 432.04 987.77 441.91 998.77 451.79 1007.18 461.78 1012.02 471.84 1013.23 481.89 1010.11 491.98 1002.99 502.05 992.82 512.04 980.15 521.95 966.11 531.67 951.86 541.22 938.23 550.47 926.03 559.31 915.96 567.84 908.2 575.82 902.74 583.1 902.27 607.05 899.33 614.51 892.33 613.32 886.19 612.77 878.77 612.29 870.31 612.13 861.17 612.98 851.33 614.58 841.02 617.11 830.38 621.07 819.54 626.15 808.68 632.33 797.72 639.83 786.87 648.17 776.21 657.07 765.57 666.51 755.17 675.81 745.05 684.53 734.96 692.58 725.14 699.21 715.62 703.98 706.09 707.04 697.04 707.72 688.46 706.06 679.84 702.59 671.63 697.06 663.8 689.79 655.89 681.44 648.28 672.05 640.95 662.02 633.44 651.98 626.1 642 618.87 632.39 611.34 623.63 603.81 615.64 596.21 608.53 588.22 602.61 580.06 597.6 571.72 593.41 562.99 590.29 554.08 587.74 545.05 585.57 535.82 584.06 526.63 582.6 517.63 581 508.8 579.62 500.44 577.81 492.76 575.47 485.65 573.02 479.45 569.88 474.3 566.02 469.89 561.89 466.52 557.01 464.16 551.4 462.26 545.52 461.05 538.97 460.34 531.82 459.43 524.46 458.56 516.58 457.53 508.27 455.74 499.83 453.54 491.03 450.94 481.96 447.57 472.83 444.01 463.47 440.51 453.95 436.92 444.42 433.94 434.75 431.9 424.97 430.59 415.19 430.62 405.54 432 396.03 434.23 386.51 437.6 377.1 441.84 367.81 446.33 358.48 451.18 349.21 456.1 340.02 460.52 330.75 464.64 321.5 468.37 312.26 471.27 302.92 473.82 293.56 476.13 284.19 477.9 274.71 479.77 265.22 481.93 255.75 484.15 246.22 487.03 236.75 490.68 227.41 494.87 218.12 499.99 209.06 506.04 200.32 512.74 191.81 520.29 183.76 528.57 176.29 537.32 169.24 546.6 162.9 556.26 157.37 566.12 152.38 576.18 148.28 586.31 145.11 596.44 142.47 606.55 140.71 616.59 139.79 626.52 139.19 636.38 139.24 646.17 139.84 655.84 140.37 665.49 141.16 675.14 142.09 684.71 142.52 694.35 142.83 704.06 142.92 713.75 142.25 723.56 141.26 733.49 139.98" stroke-dasharray="2 1" transform="rotate(18, 711, 400)" opacity="0.17"></path><path d="M731.89 150.82C741.4 148.86 750.65 146.82 759.59 144.82 768.5 142.52 777.04 140.55 785.13 139.06 793.1 137.7 800.53 137.09 807.32 137.3 816.81 138.81 831.5 147.56 836.62 154.69 839.65 160.27 842.05 166.6 844.01 173.56 846.26 180.84 848.49 188.6 851 196.7 854.48 204.89 858.8 213.29 864.25 221.8 871.27 230.21 879.75 238.64 889.73 247.06 901.17 255.28 913.76 263.45 927.09 271.57 940.65 279.45 953.79 287.32 965.75 295.17 975.98 302.82 983.71 310.51 988.35 318.27 989.99 325.87 988.23 333.61 983.26 341.5 976.24 349.29 967.42 357.29 957.82 365.51 949.19 373.69 942.05 382.12 937.42 390.84 936.45 399.53 939 408.53 944.97 417.84 954.11 427.14 964.83 436.54 975.81 446 986.37 455.46 994.72 464.98 999.95 474.5 1002 483.99 1000.09 493.45 994.44 502.81 985.81 512.09 974.57 521.19 961.67 530.03 948.13 538.69 934.68 546.98 922.12 554.8 911.15 562.32 902.04 569.24 894.96 575.46 887.77 595.16 885.93 601.1 881.29 600.41 876.96 600.36 871.4 600.48 864.77 601 857.47 602.52 849.32 604.79 840.54 607.94 831.36 612.39 821.79 617.84 811.98 624.25 802.01 631.79 791.96 640.01 781.96 648.66 771.92 657.72 761.99 666.57 752.24 674.8 742.51 682.39 732.95 688.63 723.62 693.14 714.29 696.08 705.36 696.83 696.83 695.4 688.26 692.32 680.03 687.3 672.1 680.63 664.07 672.92 656.27 664.13 648.65 654.66 640.85 645.05 633.13 635.37 625.45 625.91 617.49 617.1 609.46 608.9 601.33 601.43 592.88 595.01 584.28 589.38 575.54 584.52 566.53 580.66 557.44 577.38 548.35 574.54 539.21 572.4 530.27 570.41 521.66 568.41 513.36 566.74 505.66 564.79 498.71 562.46 489.72 558.71 477.66 548.03 474.48 540.93 472.99 535.78 472.05 529.98 471.48 523.6 470.6 517.04 469.67 509.95 468.51 502.4 466.56 494.73 464.19 486.65 461.42 478.24 457.93 469.77 454.28 461.02 450.7 452.03 447.07 443.02 444.06 433.8 441.96 424.41 440.59 415.02 440.54 405.67 441.81 396.4 443.94 387.12 447.19 377.88 451.35 368.71 455.82 359.5 460.69 350.33 465.71 341.18 470.29 331.97 474.63 322.76 478.62 313.55 481.81 304.27 484.61 294.98 487.1 285.69 488.98 276.34 490.83 267 492.83 257.73 494.73 248.45 497.13 239.29 500.15 230.32 503.56 221.45 507.8 212.87 512.9 204.67 518.59 196.74 525.13 189.3 532.43 182.48 540.25 176.08 548.69 170.39 557.61 165.5 566.85 161.12 576.4 157.58 586.14 154.91 596 152.71 605.92 151.3 615.85 150.66 625.77 150.27 635.65 150.44 645.46 151.09 655.21 151.63 664.92 152.38 674.56 153.23 684.16 153.59 693.74 153.81 703.29 153.83 712.84 153.11 722.37 152.1 731.89 150.82" stroke-dasharray="3 2" transform="rotate(20, 711, 400)" opacity="0.81"></path><path d="M727.16 161.67C736.2 159.75 744.86 157.76 753.1 155.8 761.31 153.54 769.06 151.59 776.28 150.06 786.67 148.26 804.09 148.94 810.98 151.8 817.03 156.41 826.41 170.71 830.48 180.05 833.66 186.85 837.11 194.16 841.07 201.86 846.1 209.72 852.07 217.83 859.17 226.13 867.66 234.39 877.39 242.74 888.31 251.11 900.24 259.35 912.86 267.57 925.71 275.77 938.33 283.78 950.11 291.77 960.39 299.74 968.79 307.54 974.66 315.36 977.57 323.22 977.8 330.94 975.01 338.74 969.5 346.66 962.4 354.48 953.94 362.46 945.04 370.6 937.26 378.7 930.99 387.01 927.09 395.53 926.56 404.04 929.2 412.78 934.91 421.77 943.5 430.75 953.54 439.76 963.88 448.78 973.98 457.79 982.21 466.78 987.73 475.71 990.49 484.6 989.68 493.39 985.4 502 978.28 510.52 968.51 518.8 956.88 526.75 944.27 534.52 931.31 541.87 918.74 548.71 907.24 555.27 897.15 561.23 888.72 566.5 874.17 582.77 870.98 588.01 867.94 587.96 863 588.81 847.07 593.98 836.55 599.11 828.9 603.98 820.7 609.73 812.09 616.28 803.28 623.81 794.23 631.88 785.05 640.23 775.8 648.9 766.52 657.29 757.27 665.05 748.02 672.18 738.83 678.04 729.74 682.29 720.65 685.12 711.86 685.92 703.36 684.72 694.83 682 686.53 677.48 678.44 671.39 670.26 664.29 662.22 656.12 654.27 647.21 646.16 638.08 638.07 628.76 629.94 619.52 621.6 610.77 613.17 602.47 604.63 594.76 595.87 587.93 587 581.79 578.06 576.34 569 571.81 559.97 567.84 551.05 564.34 542.26 561.54 533.77 558.97 525.76 556.5 518.16 554.42 511.24 552.21 505.15 549.74 497.42 546 487.57 536.1 485.15 529.7 483.98 525.1 483.23 519.92 482.72 514.19 481.81 508.31 480.76 501.91 479.43 495.04 477.3 488.06 474.75 480.66 471.82 472.87 468.21 465.03 464.48 456.86 460.85 448.4 457.19 439.91 454.16 431.16 452.02 422.18 450.6 413.19 450.46 404.18 451.61 395.18 453.62 386.18 456.75 377.17 460.8 368.17 465.2 359.15 470.06 350.13 475.13 341.1 479.86 332.04 484.41 322.96 488.64 313.88 492.13 304.76 495.23 295.63 497.97 286.54 500.05 277.42 502 268.36 503.96 259.4 505.68 250.49 507.74 241.75 510.27 233.24 513.03 224.89 516.5 216.87 520.71 209.27 525.42 201.96 530.94 195.19 537.22 189.03 544.01 183.29 551.46 178.25 559.47 173.98 567.86 170.18 576.66 167.17 585.76 164.97 595.06 163.16 604.53 162.08 614.08 161.68 623.71 161.45 633.35 161.72 642.94 162.4 652.56 162.92 662.11 163.62 671.57 164.38 681.03 164.65 690.41 164.79 699.68 164.72 708.95 163.97 718.13 162.94 727.16 161.67" stroke-dasharray="0 3" transform="rotate(22, 711, 400)" opacity="0.93"></path><path d="M720.02 172.52C728.54 170.64 736.62 168.7 744.23 166.8 751.81 164.6 758.88 162.66 765.42 161.11 774.83 159.19 790.66 159.22 797.12 161.53 803.12 165.46 813.81 178.18 819.3 186.7 823.64 192.97 828.44 199.78 833.9 207.03 840.39 214.47 847.82 222.22 856.27 230.21 865.84 238.23 876.38 246.38 887.75 254.61 899.69 262.77 911.88 270.95 923.86 279.13 935.24 287.18 945.46 295.22 953.96 303.24 960.56 311.12 964.67 319.02 966.03 326.92 965.05 334.72 961.46 342.56 955.6 350.47 948.58 358.31 940.58 366.25 932.41 374.3 925.48 382.32 920.05 390.48 916.83 398.79 916.69 407.09 919.4 415.57 924.85 424.2 932.91 432.84 942.28 441.45 951.99 449.98 961.61 458.51 969.65 466.95 975.37 475.26 978.73 483.53 978.89 491.63 975.87 499.49 970.2 507.25 961.91 514.71 951.63 521.8 940.13 528.72 927.92 535.19 915.66 541.13 904 546.83 893.3 551.93 883.89 556.37 866.74 566.26 857.09 573.93 856.27 574.6 852.48 576.56 837.53 584.74 829.1 590.61 822.87 595.83 816 601.79 808.62 608.43 801.02 615.88 793.04 623.75 784.78 631.79 776.43 640.04 767.89 647.97 759.24 655.26 750.57 661.95 741.83 667.44 733.06 671.44 724.28 674.15 715.67 675 707.23 674.01 698.77 671.63 690.43 667.58 682.2 662.04 673.91 655.54 665.66 647.99 657.43 639.67 649.08 631.05 640.69 622.15 632.26 613.2 623.66 604.6 614.99 596.3 606.25 588.45 597.38 581.33 588.48 574.79 579.6 568.85 570.73 563.73 562 559.14 553.52 555.01 545.27 551.57 537.46 548.4 530.2 545.41 520.42 541.56 505.76 533.59 501.08 528.98 497.94 523.98 494.87 511.48 494.01 503.89 493.01 498.57 491.8 492.75 490.26 486.46 487.94 480.09 485.21 473.28 482.12 466.07 478.41 458.82 474.61 451.2 470.95 443.24 467.29 435.27 464.24 426.99 462.08 418.42 460.62 409.86 460.39 401.22 461.42 392.53 463.29 383.85 466.28 375.12 470.18 366.36 474.49 357.6 479.31 348.8 484.39 339.98 489.23 331.15 493.95 322.3 498.42 313.44 502.21 304.59 505.61 295.74 508.65 286.95 511.01 278.18 513.15 269.5 515.19 260.96 516.88 252.52 518.76 244.29 520.96 236.32 523.22 228.56 526.05 221.17 529.51 214.22 533.34 207.58 537.89 201.48 543.16 196 548.89 190.92 555.29 186.52 562.28 182.85 569.68 179.6 577.55 177.08 585.79 175.29 594.31 173.84 603.07 173.03 612 172.82 621.08 172.73 630.23 173.06 639.38 173.74 648.6 174.23 657.78 174.85 666.88 175.52 676 175.7 685.02 175.75 693.89 175.62 702.78 174.82 711.51 173.78 720.02 172.52" stroke-dasharray="1 1" transform="rotate(24, 711, 400)" opacity="0.42"></path><path d="M711.53 183.36C719.52 181.54 727.06 179.66 734.13 177.81 741.18 175.67 747.75 173.77 753.82 172.21 762.62 170.2 777.82 169.64 784.4 171.45 790.89 174.73 803.79 185.89 810.97 193.57 816.52 199.28 822.64 205.55 829.47 212.28 837.19 219.24 845.75 226.56 855.16 234.15 865.37 241.83 876.24 249.7 887.57 257.69 899.07 265.66 910.43 273.69 921.23 281.75 931.15 289.74 939.69 297.74 946.42 305.72 951.27 313.61 953.79 321.5 953.81 329.4 951.84 337.2 947.66 345.04 941.63 352.9 934.83 360.7 927.36 368.56 919.96 376.49 913.86 384.39 909.22 392.38 906.63 400.46 906.84 408.53 909.6 416.71 914.79 424.98 922.33 433.26 931.07 441.43 940.15 449.47 949.26 457.5 957.07 465.38 962.9 473.06 966.73 480.71 967.73 488.12 965.86 495.24 961.55 502.28 954.71 508.97 945.83 515.25 935.58 521.39 924.33 527.06 912.67 532.21 901.2 537.15 890.26 541.53 880.22 545.31 871.41 548.87 863.86 551.83 857.59 554.18 843.54 561.13 834.93 567.28 830.75 570.68 827.47 573.97 823.43 577.87 818.66 582.43 813.62 587.91 807.92 594.01 801.65 600.67 795.18 607.99 788.24 615.61 780.9 623.32 773.47 631.15 765.72 638.62 757.72 645.45 749.7 651.7 741.48 656.84 733.08 660.6 724.69 663.18 716.33 664.07 708.02 663.27 699.7 661.21 691.4 657.6 683.12 652.6 674.79 646.68 666.45 639.74 658.07 632.01 649.62 623.94 641.12 615.49 632.55 606.91 623.92 598.54 615.23 590.34 606.52 582.46 597.8 575.17 589.12 568.34 580.57 562.01 572.14 556.4 563.95 551.27 556.12 546.58 548.62 542.53 541.63 538.78 535.26 535.25 526.85 530.66 514.78 521.76 511.14 516.98 508.72 512.02 506.25 500.15 505.31 493.09 504.16 488.19 502.75 482.82 500.99 477.01 498.47 471.15 495.56 464.85 492.32 458.16 488.53 451.43 484.69 444.31 481 436.84 477.35 429.36 474.32 421.54 472.14 413.41 470.64 405.28 470.33 397.03 471.24 388.7 472.96 380.38 475.78 371.98 479.51 363.53 483.69 355.09 488.42 346.59 493.48 338.07 498.38 329.56 503.24 321.03 507.91 312.51 511.98 304.01 515.71 295.55 519.07 287.17 521.76 278.85 524.17 270.65 526.4 262.62 528.19 254.73 530.04 247.08 532.07 239.74 534.02 232.62 536.39 225.89 539.24 219.62 542.33 213.67 546.04 208.25 550.39 203.44 555.11 199 560.47 195.21 566.42 192.1 572.75 189.35 579.59 187.28 586.86 185.87 594.41 184.72 602.3 184.14 610.41 184.09 618.71 184.09 627.16 184.46 635.66 185.11 644.28 185.55 652.9 186.09 661.45 186.66 670.07 186.75 678.58 186.71 686.95 186.5 695.34 185.67 703.55 184.62 711.53 183.36" stroke-dasharray="3 1" transform="rotate(26, 711, 400)" opacity="0.11"></path><path d="M702.96 194.21C710.43 192.44 717.5 190.62 724.15 188.83 730.79 186.76 737.02 184.91 742.83 183.36 751.37 181.28 766.77 180.22 773.91 181.56 778.81 183.09 783.68 185.37 788.63 188.38 793.99 191.81 799.62 195.94 805.67 200.71 812.34 205.84 819.59 211.54 827.5 217.71 836.12 224.14 845.41 230.95 855.32 238.08 865.7 245.34 876.44 252.83 887.27 260.47 897.96 268.15 908.18 275.94 917.55 283.79 925.88 291.6 932.71 299.45 937.71 307.31 940.97 315.11 942.07 322.91 940.97 330.71 938.23 338.45 933.67 346.2 927.65 353.95 921.17 361.66 914.31 369.4 907.69 377.16 902.39 384.9 898.5 392.68 896.49 400.5 897.01 408.31 899.79 416.16 904.73 424.05 911.77 431.94 919.89 439.66 928.35 447.2 936.95 454.73 944.47 462.05 950.33 469.12 954.51 476.16 956.23 482.92 955.38 489.35 952.32 495.71 946.88 501.69 939.41 507.26 930.49 512.7 920.36 517.68 909.55 522.16 898.57 526.49 887.75 530.3 877.46 533.56 868.02 536.69 859.55 539.29 852.13 541.38 837.6 546.18 825.59 551.71 822.81 553.97 819.98 557.39 811.77 567.52 806.08 574.54 801.91 580.2 797.12 586.37 791.75 592.98 786.24 600.13 780.2 607.47 773.7 614.81 767.12 622.21 760.14 629.22 752.8 635.6 745.44 641.44 737.76 646.23 729.81 649.75 721.86 652.22 713.83 653.13 705.74 652.51 697.66 650.75 689.52 647.55 681.32 643.06 673.11 637.71 664.83 631.36 656.5 624.23 648.14 616.72 639.73 608.77 631.27 600.6 622.83 592.53 614.37 584.53 605.97 576.72 597.65 569.37 589.45 562.37 581.46 555.77 573.7 549.78 566.26 544.21 559.26 539.03 552.63 534.44 546.57 530.15 541.16 526.1 534.14 520.76 524.49 510.73 521.73 505.64 519.88 500.54 517.7 488.9 516.57 482.18 515.22 477.56 513.58 472.53 511.58 467.1 508.86 461.64 505.78 455.77 502.42 449.52 498.56 443.24 494.69 436.58 491.01 429.57 487.4 422.54 484.38 415.17 482.2 407.48 480.67 399.78 480.28 391.95 481.06 384.02 482.62 376.1 485.26 368.08 488.8 360.01 492.82 351.94 497.42 343.83 502.41 335.69 507.32 327.57 512.27 319.45 517.11 311.36 521.43 303.31 525.46 295.33 529.15 287.44 532.2 279.65 534.94 272.01 537.45 264.58 539.46 257.3 541.42 250.3 543.44 243.62 545.25 237.18 547.34 231.14 549.78 225.57 553.83 217.92 564.95 205.95 572.12 201.74 577.4 199.45 583.2 197.77 589.45 196.68 595.97 195.79 602.87 195.4 610.05 195.46 617.43 195.52 625.02 195.89 632.74 196.5 640.58 196.88 648.48 197.33 656.37 197.78 664.33 197.78 672.23 197.65 680.02 197.37 687.83 196.51 695.5 195.45 702.96 194.21" stroke-dasharray="4 2" transform="rotate(28, 711, 400)" opacity="0.46"></path><path d="M695.59 205.05C702.58 203.34 709.25 201.59 715.6 199.87 721.94 197.87 727.98 196.07 733.73 194.54 742.27 192.43 758.45 190.94 766.41 191.87 771.94 193.04 777.58 194.91 783.41 197.45 789.66 200.37 796.25 203.96 803.28 208.16 810.83 212.71 818.91 217.81 827.52 223.4 836.63 229.26 846.21 235.52 856.14 242.11 866.26 248.88 876.43 255.9 886.4 263.13 895.96 270.42 904.81 277.86 912.62 285.39 919.31 292.94 924.47 300.54 927.87 308.17 929.7 315.77 929.61 323.4 927.61 331.01 924.32 338.6 919.57 346.19 913.7 353.76 907.66 361.31 901.45 368.86 895.61 376.39 891.09 383.92 887.9 391.45 886.42 398.96 887.21 406.48 889.99 413.98 894.67 421.47 901.22 428.95 908.74 436.22 916.6 443.26 924.67 450.29 931.87 457.07 937.67 463.58 943.27 473.12 940.47 490.43 932.31 498.06 924.75 502.92 915.87 507.33 906.08 511.29 895.87 515.13 885.49 518.51 875.3 521.42 865.61 524.26 856.58 526.65 848.35 528.64 837.9 531.48 822.61 536.03 817.19 538.15 813.09 540.87 805.81 548.1 801.86 553.05 799.19 557.19 796.07 561.81 792.47 566.9 788.8 572.67 784.6 578.85 779.88 585.35 775.07 592.28 769.75 599.31 763.94 606.27 758.08 613.23 751.77 619.79 745.06 625.73 738.31 631.15 731.19 635.61 723.73 638.9 716.26 641.25 708.63 642.19 700.89 641.72 693.15 640.23 685.29 637.42 677.35 633.41 669.42 628.61 661.39 622.85 653.32 616.31 645.26 609.37 637.17 601.96 629.08 594.25 621.05 586.55 613.08 578.82 605.23 571.18 597.53 563.87 590.03 556.81 582.82 550.06 575.88 543.81 569.34 537.9 563.28 532.33 557.61 527.28 552.52 522.52 548.07 518 542.38 511.93 534.86 500.71 532.8 495.21 531.32 489.83 529.14 478.1 527.73 471.55 525.21 464.7 517.49 449.23 512.4 440.58 508.51 434.68 504.64 428.43 500.98 421.83 497.41 415.23 494.44 408.29 492.26 401.03 490.71 393.77 490.25 386.37 490.89 378.87 492.29 371.38 494.72 363.79 498.06 356.15 501.88 348.52 506.32 340.85 511.19 333.16 516.07 325.52 521.05 317.88 526 310.3 530.53 302.78 534.83 295.34 538.84 288.04 542.25 280.84 545.36 273.82 548.2 267.04 550.52 260.42 552.71 254.09 554.86 248.11 557.7 239.68 564.37 225.47 568.62 219.86 573.55 215.25 586.22 209.21 593.9 207.72 599.41 207.03 605.31 206.78 611.53 206.91 617.94 207.01 624.6 207.36 631.46 207.91 638.43 208.2 645.53 208.55 652.68 208.89 659.9 208.8 667.13 208.59 674.3 208.23 681.5 207.34 688.61 206.28 695.59 205.05" stroke-dasharray="0 3" transform="rotate(30, 711, 400)" opacity="0.88"></path><path d="M690.53 215.9C697.07 214.24 703.42 212.56 709.57 210.92 715.72 209 721.69 207.26 727.49 205.77 736.21 203.65 753.46 201.8 762.28 202.37 768.43 203.22 774.78 204.7 781.39 206.8 788.35 209.25 795.67 212.31 803.38 215.96 811.49 219.93 820.01 224.44 828.9 229.43 838.07 234.68 847.49 240.36 857 246.38 866.46 252.59 875.72 259.09 884.52 265.81 892.74 272.64 900.08 279.65 906.3 286.77 911.38 293.94 914.99 301.2 916.95 308.51 917.56 315.82 916.5 323.17 913.84 330.51 910.21 337.85 905.44 345.19 899.86 352.51 894.32 359.82 888.79 367.11 883.73 374.37 879.95 381.62 877.4 388.85 876.4 396.03 877.42 403.21 880.19 410.35 884.6 417.41 890.7 424.48 897.63 431.3 904.9 437.86 912.43 444.41 919.27 450.69 924.96 456.66 930.94 465.4 930.73 481.11 924.49 487.98 918.29 492.36 910.71 496.34 902.08 499.9 892.84 503.4 883.17 506.49 873.4 509.19 863.83 511.87 854.62 514.19 845.94 516.2 837.96 518.28 830.69 520.13 824.14 521.79 815.83 524.59 803 530.76 797.83 534.54 793.35 539.4 784.2 551.84 779.05 559.51 775.54 565.31 771.61 571.42 767.25 577.75 762.86 584.42 758.03 591.12 752.74 597.68 747.42 604.21 741.66 610.32 735.49 615.82 729.29 620.85 722.71 624.99 715.74 628.06 708.78 630.29 701.62 631.23 694.31 630.9 687.02 629.67 679.58 627.22 672.06 623.67 664.56 619.39 656.98 614.19 649.36 608.24 641.81 601.88 634.25 595.02 626.74 587.81 619.35 580.54 612.07 573.15 604.97 565.77 598.07 558.61 591.43 551.6 585.14 544.81 579.13 538.41 573.56 532.28 568.48 526.44 563.77 521.03 559.62 515.88 556.07 510.96 551.58 504.24 545.82 491.85 544.25 485.9 542.96 480.15 540.5 468.1 538.73 461.59 535.83 454.88 527.52 440.01 522.28 431.8 518.37 426.22 514.52 420.31 510.9 414.1 507.4 407.87 504.48 401.34 502.32 394.51 500.75 387.68 500.22 380.72 500.73 373.67 501.96 366.63 504.19 359.51 507.29 352.34 510.89 345.2 515.13 338.02 519.84 330.86 524.62 323.73 529.59 316.64 534.58 309.63 539.27 302.69 543.79 295.86 548.07 289.18 551.83 282.62 555.3 276.26 558.51 270.16 562.46 261.4 569.17 245.89 572.38 239.34 579.48 229.3 593.93 220.08 600.34 218.94 607.42 218.34 623.57 218.69 632.44 219.31 638.54 219.51 644.82 219.75 651.23 219.98 657.69 219.79 664.23 219.5 670.8 219.08 677.39 218.17 683.97 217.1 690.53 215.9" stroke-dasharray="1 3" transform="rotate(32, 711, 400)" opacity="0.30"></path><path d="M688.51 226.75C694.69 225.15 700.78 223.55 706.78 221.98 712.8 220.15 718.75 218.48 724.67 217.03 730.64 215.52 736.62 214.35 742.64 213.57 748.79 212.9 755.05 212.72 761.48 213.06 768.12 213.63 774.99 214.76 782.14 216.46 789.55 218.46 797.28 221.03 805.31 224.14 813.59 227.56 822.13 231.48 830.87 235.87 839.69 240.52 848.55 245.58 857.28 251 865.76 256.62 873.83 262.54 881.28 268.71 888.05 275 893.85 281.5 898.5 288.14 902.09 294.85 904.3 301.68 905.03 308.57 904.64 315.5 902.85 322.48 899.76 329.47 895.98 336.47 891.35 343.48 886.16 350.47 881.19 357.46 876.36 364.43 872.05 371.35 868.96 378.28 867.02 385.16 866.44 391.97 867.65 398.78 870.39 405.52 874.54 412.16 880.18 418.81 886.56 425.19 893.25 431.29 900.25 437.38 906.7 443.19 912.2 448.68 918.41 456.73 920.41 471.09 915.93 477.36 911.04 481.38 904.77 485.04 897.39 488.34 889.27 491.61 880.52 494.55 871.45 497.16 862.32 499.8 853.28 502.16 844.53 504.29 836.2 506.53 828.38 508.62 821.11 510.6 814.48 512.82 808.41 515.04 802.85 517.32 795.61 521.39 783.32 531.28 777.77 537.33 774.31 542 770.74 547.01 766.99 552.31 763.34 558.08 759.41 564.06 755.16 570.19 750.94 576.56 746.35 582.89 741.4 589.05 736.43 595.14 731.08 600.8 725.36 605.89 719.62 610.54 713.51 614.36 707.05 617.21 700.59 619.32 693.94 620.27 687.14 620.07 680.37 619.06 673.47 616.95 666.5 613.83 659.56 610.04 652.58 605.39 645.6 600.02 638.71 594.24 631.85 587.94 625.11 581.26 618.5 574.47 612.05 567.48 605.85 560.43 599.85 553.51 594.15 546.65 588.83 539.93 583.79 533.5 579.18 527.26 575.06 521.26 569.61 512.88 561.72 497.68 559.2 490.71 557.27 484.24 554.68 471.7 553.53 465.41 551.72 459.18 546.25 445.94 542.36 438.82 539.12 434.01 535.65 428.94 532.04 423.61 528.14 418.28 524.33 412.68 520.78 406.81 517.37 400.93 514.51 394.78 512.38 388.37 510.81 381.96 510.21 375.45 510.59 368.86 511.65 362.29 513.66 355.65 516.51 348.99 519.87 342.36 523.87 335.72 528.37 329.11 533.01 322.55 537.89 316.05 542.87 309.64 547.64 303.32 552.32 297.12 556.82 291.11 560.89 285.2 564.71 279.52 568.28 274.1 572.81 266.36 580.43 252.85 583.88 247.23 590.66 238.77 603.24 231.21 608.67 230.35 614.61 229.89 628.36 230.21 636.04 230.7 644.09 230.87 661.25 230.58 670.21 229.92 676.23 228.99 682.34 227.92 688.51 226.75" stroke-dasharray="3 3" transform="rotate(34, 711, 400)" opacity="0.97"></path><path d="M689.86 237.59C695.71 236.06 701.58 234.54 707.47 233.05 713.38 231.31 719.33 229.73 725.34 228.33 731.4 226.86 737.56 225.69 743.84 224.87 750.23 224.12 756.79 223.8 763.54 223.93 777.5 224.81 792.44 227.78 808.23 232.74 824.4 238.77 840.79 246.67 856.41 256.08 870.52 266.27 881.92 277.61 889.24 289.7 892.83 302.16 891.47 315.09 885.48 328.17 881.73 334.76 877.36 341.37 872.65 347.96 868.29 354.56 864.16 361.15 860.57 367.68 858.14 374.22 856.73 380.71 856.53 387.12 857.9 393.53 860.58 399.86 864.48 406.08 869.68 412.3 875.53 418.25 881.66 423.92 888.12 429.59 894.15 434.97 899.43 440.05 905.72 447.49 909.52 460.77 906.62 466.59 898.17 474.11 885.04 480.42 869.12 485.62 852.2 491.08 835.35 495.85 819.73 500.26 805.86 505.67 793.75 511.4 783.14 517.8 774.12 525.92 765.69 535.11 757.28 545.3 753.29 550.95 749.15 556.76 744.82 562.63 740.55 568.67 736.03 574.62 731.24 580.37 726.45 586.01 721.38 591.24 716 595.92 710.62 600.2 704.93 603.72 698.94 606.37 692.96 608.35 686.83 609.29 680.6 609.21 674.39 608.41 668.1 606.61 661.78 603.9 655.5 600.57 649.22 596.45 642.99 591.64 636.85 586.43 630.81 580.7 624.92 574.57 613.56 561.9 603.16 548.59 594.19 535.33 586.14 522.88 579.82 511.01 575.39 499.87 571.59 489.86 569.2 480.33 567.81 471.11 565.6 462.61 563.21 453.95 560.1 444.91 556.44 438.21 547.09 423.99 541.69 416.4 537.83 411.28 534.09 405.94 530.62 400.38 527.31 394.82 524.53 389.03 522.44 383.02 520.87 377.02 520.21 370.95 520.46 364.83 521.35 358.72 523.14 352.59 525.73 346.46 528.82 340.35 532.56 334.27 536.8 328.24 541.25 322.26 545.98 316.36 550.88 310.59 560.21 299.26 569.19 288.61 577.41 278.98 583.89 269.89 589.67 262.08 595.08 255.82 599.38 250.23 604.11 246.24 609.62 243.9 618.27 241.58 635.52 241.72 642.23 242.07 649.28 242.08 664.61 241.5 672.79 240.74 678.31 239.8 684.01 238.74 689.86 237.59" stroke-dasharray="4 3" transform="rotate(36, 711, 400)" opacity="0.83"></path><path d="M694.36 248.44C705.49 245.21 717.08 242.18 729.08 239.66 741.25 236.79 754.11 235.15 767.63 234.99 781.53 235.4 796.16 237.68 811.21 241.77 826.15 246.77 840.72 253.52 853.94 261.72 865.38 270.66 873.93 280.76 878.57 291.68 880.08 302.99 877.43 314.85 871.12 326.94 863.92 339.2 855.99 351.54 849.3 363.72 846.82 375.97 848.43 387.99 854.42 399.58 864.89 411.17 876.42 421.73 886.64 431.18 894.98 440.6 898.46 448.9 896.59 456.07 890.48 463.27 879.84 469.48 866.13 474.83 850.88 480.54 834.95 485.79 819.48 490.87 805.03 496.92 791.89 503.35 780.07 510.4 769.58 518.92 759.89 528.31 750.58 538.42 741.89 549.63 732.92 560.94 723.4 571.63 713.98 581.85 703.73 590.11 692.64 595.52 681.55 598.63 670.2 597.98 658.89 593.86 647.75 587.58 636.91 578.59 626.77 567.69 617.11 556.05 608.51 543.58 601.32 530.91 594.82 518.76 589.85 506.94 586.45 495.66 583.29 485.29 581.14 475.34 579.61 465.74 577.03 456.8 574.08 447.83 570.36 438.67 564.72 429.8 558.19 420.44 551.23 410.51 543.57 400.64 536.97 390.07 532.5 378.84 529.94 367.61 530.84 356.28 534.96 345.05 540.99 333.91 549.19 323.02 558.65 312.66 567.93 302.55 577.15 293.19 585.84 284.84 593.06 276.96 599.61 270.3 605.67 265.07 610.55 260.35 615.57 257.05 621.05 255.2 626.12 253.52 632.14 252.93 639.21 253.24 646.28 252.97 654.48 253 663.72 253.09 672.98 251.86 683.22 250.3 694.36 248.44" stroke-dasharray="2 4" transform="rotate(38, 711, 400)" opacity="0.93"></path><path d="M701.34 259.29C711.97 256.23 723.22 253.39 735.01 251.02 746.93 248.27 759.53 246.6 772.68 246.22 785.98 246.25 799.68 247.93 813.35 251.23 826.55 255.29 838.9 260.95 849.53 268 858.33 275.7 864.26 284.56 866.65 294.26 866.54 304.37 863.05 315.07 856.8 326.09 850.32 337.28 843.6 348.63 838.25 359.89 836.7 371.2 838.69 382.35 844.36 393.11 853.9 403.87 864.38 413.7 873.87 422.54 882.05 431.36 886.23 439.23 885.85 446.15 881.86 453.16 873.61 459.41 862.22 465.01 848.99 471.02 834.49 476.77 819.8 482.47 805.5 489.07 791.97 496.06 779.47 503.59 767.97 512.35 757.28 521.77 747.19 531.66 737.68 542.35 728.24 552.96 718.67 562.83 709.24 572.19 699.38 579.72 689.08 584.67 678.77 587.63 668.53 587.23 658.58 583.73 648.77 578.32 639.47 570.4 630.99 560.62 622.89 550.05 615.87 538.51 610.16 526.59 604.88 514.92 600.89 503.37 598.14 492.18 595.29 481.67 593.1 471.52 591.21 461.69 588.14 452.43 584.59 443.23 580.3 434 574.29 425.04 567.6 415.78 560.65 406.17 553.23 396.63 546.88 386.59 542.56 376.11 539.99 365.62 540.6 355.2 544.21 345.01 549.64 334.9 557.24 325.15 566.2 315.99 575.27 307.05 584.54 298.89 593.53 291.73 601.36 284.94 608.62 279.29 615.37 274.94 620.98 270.95 626.52 268.2 632.26 266.7 637.44 265.22 643.29 264.66 649.98 264.83 656.5 264.4 664.05 264.2 672.62 264.07 681.14 262.72 690.72 261.11 701.34 259.29" stroke-dasharray="1 4" transform="rotate(40, 711, 400)" opacity="0.92"></path><path d="M709.77 270.13C719.89 267.25 730.66 264.61 741.97 262.4 753.34 259.8 765.28 258.14 777.54 257.6 789.74 257.34 802.01 258.52 813.85 261.13 824.99 264.34 834.96 269.01 843.01 274.97 849.37 281.5 853.05 289.14 853.64 297.63 852.4 306.5 848.5 316.01 842.61 325.9 837 335.98 831.51 346.28 827.39 356.56 826.69 366.91 828.96 377.16 834.3 387.11 842.95 397.06 852.41 406.21 861.13 414.53 869.01 422.85 873.65 430.39 874.47 437.18 872.3 444.09 866.28 450.44 857.19 456.34 846.16 462.65 833.48 468.84 820.11 475.07 806.59 482.1 793.34 489.49 780.76 497.33 768.79 506.14 757.54 515.42 746.95 524.96 736.83 535.06 727.02 544.92 717.41 553.97 707.94 562.49 698.4 569.32 688.79 573.83 679.18 576.61 669.94 576.44 661.23 573.51 652.6 568.9 644.66 561.99 637.62 553.32 630.82 543.84 625.05 533.31 620.46 522.25 616.03 511.25 612.64 500.17 610.16 489.29 607.32 478.88 604.85 468.72 602.44 458.85 598.82 449.44 594.68 440.14 589.87 430.92 583.6 421.94 576.82 412.82 569.97 403.53 562.83 394.3 556.78 384.78 552.62 375.01 550.06 365.24 550.4 355.69 553.5 346.5 558.31 337.36 565.23 328.67 573.59 320.64 582.28 312.78 591.41 305.71 600.49 299.6 608.74 293.76 616.57 288.98 623.95 285.35 630.31 281.95 636.49 279.62 642.69 278.35 648.25 276.99 654.25 276.38 660.86 276.39 667.21 275.77 674.42 275.36 682.54 275 690.59 273.55 699.65 271.91 709.77 270.13" stroke-dasharray="0 1" transform="rotate(42, 711, 400)" opacity="0.33"></path><path d="M718.38 280.98C727.97 278.29 738.11 275.84 748.65 273.81 759.21 271.37 770.11 269.77 781.07 269.13 791.83 268.65 802.33 269.42 812.08 271.44 821.07 273.93 828.69 277.71 834.38 282.67 838.63 288.1 840.5 294.59 839.81 301.91 837.87 309.57 833.95 317.9 828.67 326.66 824.02 335.59 819.72 344.81 816.75 354.11 816.76 363.47 819.25 372.82 824.24 381.99 832.04 391.16 840.51 399.69 848.43 407.55 855.89 415.43 860.76 422.71 862.5 429.42 861.84 436.28 857.81 442.75 850.91 448.92 842.13 455.49 831.5 462.03 819.81 468.66 807.61 475.97 795.23 483.59 783.14 491.53 771.33 500.24 760.02 509.24 749.32 518.31 738.95 527.74 729 536.81 719.45 545.05 710.03 552.75 700.8 558.9 691.81 562.98 682.82 565.6 674.45 565.61 666.78 563.19 659.15 559.32 652.32 553.37 646.39 545.78 640.56 537.39 635.69 527.92 631.79 517.81 627.85 507.62 624.69 497.19 622.16 486.81 619.09 476.72 616.17 466.77 613.16 457.06 608.98 447.69 604.3 438.45 599.06 429.35 592.62 420.45 585.85 411.53 579.19 402.59 572.38 393.71 566.64 384.71 562.68 375.63 560.14 366.55 560.24 357.82 562.84 349.55 567.01 341.32 573.21 333.62 580.86 326.6 589.02 319.71 597.82 313.59 606.78 308.38 615.21 303.35 623.41 299.28 631.27 296.22 638.29 293.27 645.09 291.24 651.81 290.09 657.91 288.77 664.25 288.07 670.99 287.88 677.43 287.08 684.53 286.45 692.38 285.89 700.14 284.36 708.79 282.7 718.38 280.98" stroke-dasharray="1 3" transform="rotate(44, 711, 400)" opacity="0.72"></path><path d="M725.89 291.82C734.9 289.32 744.25 287.08 753.81 285.23 763.33 282.99 772.93 281.47 782.32 280.78 791.45 280.16 800.05 280.61 807.69 282.15 817.35 285.53 826.62 298.26 825.4 307.2 823.19 313.71 819.56 320.89 815.06 328.55 811.41 336.36 808.25 344.51 806.3 352.84 806.91 361.22 809.55 369.69 814.18 378.1 821.17 386.51 828.69 394.46 835.8 401.91 842.74 409.38 847.64 416.43 850.01 423.08 850.55 429.87 848.21 436.43 843.29 442.81 836.69 449.55 828.17 456.32 818.39 463.19 807.89 470.6 796.85 478.27 785.76 486.14 774.67 494.58 763.83 503.16 753.45 511.66 743.25 520.37 733.47 528.63 724.18 536.05 714.97 542.96 706.13 548.47 697.7 552.13 689.28 554.57 681.63 554.74 674.79 552.78 667.94 549.59 661.91 544.54 656.74 537.97 651.56 530.65 647.2 522.26 643.62 513.18 639.84 503.91 636.61 494.28 633.78 484.56 630.32 475 626.86 465.47 623.22 456.11 618.54 446.98 613.41 437.97 607.86 429.13 601.37 420.45 594.72 411.82 588.3 403.29 581.87 394.8 576.49 386.32 572.74 377.91 570.25 369.5 570.11 361.55 572.23 354.12 575.77 346.72 581.21 339.9 588.09 333.77 595.58 327.72 603.85 322.42 612.47 317.96 620.84 313.59 629.16 310.08 637.27 307.44 644.77 304.82 652.07 302.97 659.24 301.86 665.87 300.52 672.61 299.69 679.56 299.28 686.23 298.3 693.35 297.47 701.03 296.73 708.61 295.14 716.88 293.49 725.89 291.82" stroke-dasharray="1 3" transform="rotate(46, 711, 400)" opacity="0.56"></path><path d="M731.17 302.67C739.53 300.36 747.99 298.33 756.4 296.66 764.76 294.63 772.94 293.22 780.68 292.54 791.51 291.95 807.53 295.77 811.5 300.26 812.7 306.08 807.02 322.06 801.87 331.73 799.22 338.46 797.11 345.6 796.05 353 797.15 360.43 799.86 368.04 804.13 375.72 810.34 383.41 816.95 390.79 823.26 397.83 829.59 404.91 834.34 411.72 837.1 418.27 838.52 424.96 837.55 431.53 834.34 438.01 829.71 444.78 823.25 451.63 815.43 458.56 806.83 465.91 797.45 473.44 787.74 481.07 777.83 489.09 767.92 497.13 758.27 504.99 748.67 512.92 739.4 520.37 730.58 526.98 721.81 533.13 713.45 538.01 705.58 541.29 697.71 543.54 690.66 543.83 684.41 542.28 678.14 539.71 672.64 535.48 667.91 529.88 663.07 523.61 658.91 516.3 655.33 508.27 651.46 499.99 647.95 491.28 644.66 482.37 640.74 473.51 636.74 464.58 632.53 455.75 627.43 447.06 621.99 438.46 616.27 430.02 609.85 421.7 603.42 413.48 597.33 405.41 591.33 397.39 586.32 389.46 582.8 381.71 580.38 373.95 580.04 366.72 581.7 360.06 584.62 353.42 589.28 347.37 595.33 342 602.05 336.66 609.63 332.03 617.7 328.16 625.74 324.32 633.91 321.22 642.01 318.88 649.72 316.47 657.3 314.72 664.75 313.58 671.79 312.18 678.84 311.2 685.97 310.58 692.86 309.42 700.02 308.42 707.52 307.52 714.93 305.89 722.81 304.26 731.17 302.67" stroke-dasharray="1 4" transform="rotate(48, 711, 400)" opacity="0.72"></path><path d="M733.44 313.52C741.08 311.41 748.57 309.58 755.79 308.1 762.95 306.28 769.71 305.02 775.87 304.38 794.12 309.94 793.03 328.03 789.17 336.26 787.47 342.01 786.29 348.19 785.99 354.69 787.46 361.22 790.17 368.02 794.07 375 799.53 381.98 805.29 388.8 810.8 395.43 816.46 402.09 820.93 408.62 823.85 415.01 825.84 421.52 825.91 427.99 824.11 434.43 821.17 441.1 816.57 447.86 810.65 454.67 803.97 461.78 796.39 469 788.28 476.24 779.86 483.71 771.23 491.12 762.64 498.26 754 505.39 745.55 512.01 737.42 517.84 729.33 523.25 721.57 527.54 714.27 530.44 706.96 532.51 700.41 532.9 694.6 531.7 688.73 529.67 683.54 526.2 678.98 521.51 674.28 516.22 670.08 509.97 666.3 503 662.19 495.76 658.3 488.04 654.51 480.05 650.14 472.03 645.66 463.86 641 455.72 635.64 447.64 630.04 439.61 624.3 431.72 618.08 423.9 611.97 416.2 606.27 408.68 600.74 401.2 596.14 393.86 592.86 386.76 590.53 379.65 590.02 373.1 591.25 367.13 593.57 361.16 597.46 355.78 602.65 351.04 608.51 346.31 615.27 342.21 622.61 338.79 630.09 335.36 637.84 332.56 645.65 330.4 653.26 328.13 660.84 326.41 668.31 325.19 675.52 323.7 682.7 322.56 689.86 321.73 696.85 320.43 703.95 319.28 711.2 318.26 718.38 316.62 725.8 315.02 733.44 313.52" stroke-dasharray="3 0" transform="rotate(50, 711, 400)" opacity="0.32"></path><path d="M732.36 324.36C739.21 322.45 745.72 320.83 751.79 319.54 779.28 320.69 779.56 335.19 777.02 342.13 775.99 349.65 779.17 366.69 784.01 375.99 788.77 382.28 793.71 388.54 798.45 394.72 803.41 400.93 807.48 407.11 810.36 413.24 812.66 419.46 813.44 425.71 812.71 431.96 811.13 438.38 808.13 444.86 803.91 451.38 799.03 458.09 793.23 464.85 786.78 471.54 779.99 478.37 772.82 485.06 765.5 491.43 758.09 497.74 750.67 503.54 743.44 508.61 736.19 513.32 729.16 517.06 722.46 519.6 712.71 521.7 696.12 518.09 689.07 512.84 684.37 508.48 680.02 503.23 675.96 497.32 671.58 491.13 667.31 484.44 663.08 477.44 658.37 470.35 653.56 463.07 648.62 455.74 643.16 448.42 637.58 441.1 631.98 433.89 626.07 426.71 620.38 419.63 615.14 412.74 610.11 405.87 605.93 399.17 602.92 392.72 600.38 383.31 604.23 367.24 610.12 360.62 615.07 356.38 620.91 352.72 627.38 349.64 634.09 346.5 641.17 343.91 648.42 341.86 655.63 339.67 662.9 337.93 670.11 336.61 677.19 335.02 684.24 333.75 691.21 332.74 698.08 331.32 704.95 330.06 711.81 328.94 718.63 327.31 725.5 325.77 732.36 324.36" stroke-dasharray="3 3" transform="rotate(52, 711, 400)" opacity="0.70"></path><path d="M728.09 335.21C740.16 331.43 750.25 329.02 757.75 328.22 766.7 327.53 768.68 338.2 765.44 349.27 766.1 357.47 768.81 367.39 773.95 378.62 782.91 389.85 791.18 401.37 796.72 412.81 800.97 424.53 800.3 436.57 795.19 448.53 788.07 460.98 777.8 473.31 766.01 484.49 753.73 495.3 741.04 503.88 728.95 508.75 716.85 511.55 706.38 509.64 697.38 503.87 687.84 496.46 678.91 486.18 670.23 474.36 660.15 462.08 649.66 449.02 639.33 436.14 628.36 423.31 618.95 410.75 612.98 399.17 609.56 387.59 611.47 377.97 617.8 370.42 626.39 362.77 637.87 357 650.66 353.11 663.75 348.68 677.23 345.55 690.32 343.56 703.25 340.23 716.01 337.38 728.09 335.21" stroke-dasharray="4 2" transform="rotate(54, 711, 400)" opacity="0.22"></path><path d="M721.26 346.06C735.8 341.77 752.89 339.58 754.93 342.88 755.78 345.79 755.29 350.75 754.46 357.51 756.14 364.34 759.24 372.83 763.89 382.72 771.41 392.6 778.26 403 783.05 413.49 787.26 424.15 787.75 435.14 784.67 445.96 780.19 457.03 772.8 467.81 763.62 477.4 753.99 486.59 743.42 493.81 732.75 497.9 722.07 500.44 712.26 499.12 703.32 494.6 693.99 488.8 684.88 480.48 675.93 470.68 666.05 460.42 655.99 449.28 646.39 438.13 636.59 426.95 628.32 415.92 623.04 405.68 619.78 395.45 620.92 386.9 625.77 380.12 632.51 373.21 641.93 367.85 652.76 364.03 664.12 359.7 676.09 356.45 687.77 354.19 699.48 350.87 710.86 348.09 721.26 346.06" stroke-dasharray="2 4" transform="rotate(56, 711, 400)" opacity="0.87"></path><path d="M712.9 356.9C732.12 352.51 743.32 358.93 744.1 366.61 746.47 372.27 749.73 379.46 753.83 388 760 396.54 765.5 405.68 769.43 414.98 773.23 424.39 774.32 434.06 772.63 443.5 770.09 453.02 765.05 462.15 758.17 470.15 750.94 477.75 742.46 483.68 733.3 487.06 724.14 489.3 715.18 488.46 706.62 485.03 697.8 480.66 688.96 474.15 680.25 466.29 671.02 458.02 661.8 448.84 653.24 439.49 644.74 430.07 637.66 420.66 633.1 411.81 630.08 402.95 630.57 395.45 634.08 389.38 639.07 383.18 646.41 378.21 655.12 374.47 664.44 370.3 674.47 367.01 684.39 364.61 694.43 361.4 704.16 358.76 712.9 356.9" stroke-dasharray="2 2" transform="rotate(58, 711, 400)" opacity="0.98"></path><path d="M704.26 367.75C720.32 364.35 732.18 369.96 734.35 376.3 737.08 380.95 740.26 386.92 743.77 394.1 748.68 401.29 752.92 409.05 755.96 416.97 759.11 424.93 760.32 433.09 759.46 440.97 758.18 448.83 754.88 456.28 749.89 462.7 744.68 468.79 738.11 473.51 730.53 476.21 722.94 478.14 715.09 477.67 707.3 475.18 699.39 472.03 691.31 467.15 683.37 461.08 675.22 454.7 667.2 447.46 659.91 439.92 652.84 432.31 646.99 424.55 643.16 417.12 640.44 409.68 640.44 403.24 642.78 397.89 646.2 392.43 651.56 387.89 658.15 384.31 665.29 380.41 673.17 377.22 681.12 374.8 689.21 371.82 697.13 369.39 704.26 367.75" stroke-dasharray="2 1" transform="rotate(60, 711, 400)" opacity="0.51"></path><path d="M696.62 378.59C707.82 374.55 715.03 374.47 718.71 378.08 724.03 381.32 729 389 733.71 400.61 741.92 412.21 746.46 425.75 745.64 438.21 744.2 450.46 736.81 460.77 724.83 465.36 712.85 468.01 698.89 463.65 685.59 455.02 672.16 445.5 659.94 433.22 653.23 421.26 649.37 409.29 653.4 399.8 662.23 393.46 672.65 386.26 685.42 380.92 696.62 378.59" stroke-dasharray="2 4" transform="rotate(62, 711, 400)" opacity="0.31"></path><path d="M691.13 389.44C699.41 386.5 705.66 386.71 709.83 389.68 715.01 392.35 719.81 398.28 723.65 407.07 729.42 415.86 732.35 425.96 731.65 435.05 730.9 443.94 725.89 451.29 717.07 454.52 708.25 456.67 697.5 453.93 687.27 448.05 677.23 441.66 668.25 432.95 663.29 423.94 659.99 414.93 662.07 407.3 667.65 401.84 674.18 395.89 682.84 391.39 691.13 389.44" stroke-dasharray="1 2" transform="rotate(64, 711, 400)" opacity="0.14"></path><path d="M688.61 400.29C699.58 396.11 709.09 401.23 713.59 413.05 721.42 424.87 719.92 439.22 708.4 443.67 696.88 446.24 680.43 437.01 673.35 424.98 669.28 412.95 677.63 402.69 688.61 400.29" stroke-dasharray="1 3" transform="rotate(66, 711, 400)" opacity="0.16"></path></g></svg>